<?xml version="1.0" encoding="UTF-8"?>
<svg id="Layer_2" data-name="Layer 2" xmlns="http://www.w3.org/2000/svg" viewBox="0 0 238.75 237.23">
  <defs>
    <style>
      .cls-1 {
        fill: #057545;
      }

      .cls-2 {
        fill: #156d62;
      }
    </style>
  </defs>
  <g>
    <path class="cls-1" d="m15.73,95.94c.25-2.63.46-5.19.43-5.74,0,0-.95,1.69-4.76,3.24,0,0-2.95.85-2.88,3.84,0,0-2.1-3.75-.39-5.97,0,0,.6-1.18,3.26-2.54,0,0,1.04-.49,2.22-2.55,1.02-1.78,2.66-3.14,4.6-3.78.08-.03.16-.05.24-.08,0,0-7.37-.73-7.12-8.57,0,0,1.9,2.97,8.25,3.22l3.81.4c.1,0,.2-.01.28-.07.83-.56,5.72-3.68,11.1-4.01l6.09-.85s9.5-1.92,11.8-1.79c2.3.12,5.22.15,8.29,3.15,0,0-2.68-.41-4.01-.19,0,0-3.12.29-4.84.68,0,0,2.92.7,4.63,1.38,0,0,9.19,5.11,13.83,3.26,0,0-.7,3.34-6.06,3.61,0,0-3.7.31-10.18-2.1,0,0-10.98-4.01-18.04-3.65,0,0,5.54.87,14.36,5.22l-3.87,1.4s13.37,5.61,12.74,21.33c0,0,4.77-11.13-5.27-19.9,0,0,9.75-3.18,17.1,4.23,0,0,4.84,4.64,7.16,7.61,0,0,2.71,3.03,5.87,1.81,0,0-2.32,3.16-8.45,1.16,0,0-.98-.1-3.91-1.63,0,0-.8,9.23-12.69,18.49,0,0,7.51-2.35,12.86-10.61,0,0,.06,12.51-13.15,17.09,0,0-3.97,1.74-15.06,4.19,0,0-17.83,4.23-22.56,12.97,0,0-.35-7.65,6.52-15.09,0,0,4.11-4.4,8.9-7.5,0,0,12.09-5.7,9.32-18.89-.16-.75-.55-1.95-1.04-3.01-.3-.64-1.44-3.31-7.11-4.27,0,0,9.61,2.86,5.74,13.16-3.12,8.3-9.47,9.06-11.82,9.05-.63,0-1.23.22-1.71.62-1.64,1.38-5.19,4.44-5.19,4.88,0,.38-.09,2.33-.16,3.63-.03.59,0,1.17.04,1.76.06.77-.1,2.07-1.87,2.3-2.06.27-2.5-.54-2.6-.86-.02-.08-.06-.16-.1-.24-.13-.27-.39-1.06-.4-3.23,0-.13-.12-.22-.25-.19-.36.09-1.01.41-1.07,1.6-.03.55-.1,1.09-.25,1.62-.28,1.02-.83,2.5-1.77,3.38-.16.15-.39.22-.61.17-1.02-.22-4.13-1.1-5.26-3.83-.04-.09-.07-.17-.11-.26-.17-.39-.87-2.19-.57-5.36.01-.16,0-.32-.08-.46-.22-.48-.74-1.6-.74-1.6,0,0,.24-.45.63-1.23,3.19-6.38,5.16-13.3,5.83-20.4h.05Z"/>
    <path class="cls-1" d="m27.8,73.69s-6.35.21-9.21-2.99c0,0-.96,5.21,4.28,5.35l4.94-2.36h-.01Z"/>
    <path class="cls-2" d="m28.13,144.47c-.25-.11-.37-.38-.3-.64.45-1.69,2.97-7.69,16.22-11.42,0,0,22.06-5.46,25.1-7.39.38-.24.77-.46,1.19-.64,2.9-1.26,12.19-6.04,13.13-16.01,0,0,4.94,15.71-7.93,26.9,0,0,3.2-8.29,2.64-9.67,0,0-1.96,11.03-11.6,15.71,0,0,4.26-6.56,4.73-12.63,0,0-2.89,14.36-15.67,17.25,0,0,4.17-3.02,6.06-12.57,0,0-3.2,12.11-17.75,13.9,0,0-7.7.83-15.83-2.78h0Z"/>
    <path class="cls-2" d="m1.52,118.29s8.09,31.15,41.04,33.59c0,0,26.13,2.95,41.83-18.63,0,0-10.23,23.83-39.66,23.76-29.44-.07-42.21-24.68-43.21-38.72h0Z"/>
  </g>
  <path class="cls-1" d="m99.62,83.79h8.53c1.73,0,2.98-.04,3.78-.11.79-.07,1.56-.22,2.32-.44.23-.07.41-.1.55-.1.58,0,1.08.31,1.53.93.73,1.01,1.1,2.22,1.1,3.65,0,.72-.15,1.29-.46,1.7-.3.41-.72.62-1.25.62-.37,0-.65-.07-.85-.22s-.48-.48-.82-1c-.49-.74-1.1-1.24-1.85-1.49s-1.97-.37-3.68-.37c-1.27,0-2.05.23-2.32.68-.14.24-.23.57-.26.98s-.04,1.45-.04,3.14c0,.66.11,1.08.33,1.24.22.16.8.24,1.74.24.46,0,.8-.1,1.01-.29s.34-.54.4-1.04c.08-.64.16-1.08.24-1.32.08-.24.24-.45.46-.62.23-.2.5-.3.81-.3.45,0,.84.22,1.16.65.23.32.43.89.59,1.7.16.81.24,1.66.24,2.55,0,1.75-.27,3.18-.81,4.3-.3.61-.75.91-1.36.91-.38,0-.64-.1-.78-.29s-.25-.59-.33-1.2c-.17-1.25-.9-1.88-2.19-1.88-.5,0-.84.16-1.02.47s-.27.9-.27,1.75c0,.52.04,1.19.11,2.02.07.82.15,1.37.22,1.63.09.33.36.56.82.69.46.13,1.23.19,2.3.19,1.66,0,2.91-.21,3.75-.64s1.53-1.2,2.06-2.32c.31-.64.59-1.07.84-1.29s.57-.33.97-.33c.46,0,.85.2,1.15.61.3.4.46.91.46,1.52,0,.66-.17,1.49-.51,2.49-.34,1-.76,1.88-1.26,2.66-.25.38-.46.63-.63.76-.17.13-.38.19-.63.19-.21,0-.51-.03-.91-.1-.71-.13-1.65-.22-2.84-.25h-14.07c-.56,0-1-.12-1.31-.37s-.46-.6-.46-1.05c0-.32.07-.55.2-.7.13-.14.44-.33.91-.55.33-.14.58-.32.74-.53.16-.21.28-.52.37-.93.37-1.67.55-3.92.55-6.75,0-4.27-.27-6.96-.8-8.08-.11-.22-.23-.38-.37-.46-.13-.09-.41-.19-.83-.32-.63-.19-.95-.61-.95-1.26,0-.35.1-.67.32-.95.21-.28.49-.46.83-.55.43-.1,1.27-.15,2.51-.15l-.04-.02Z"/>
  <path class="cls-1" d="m131.86,83.44c1.57,0,3.21.35,4.92,1.04,2.24.91,4,2.45,5.28,4.61,1.18,2,1.77,4.08,1.77,6.23,0,2.41-.71,4.6-2.13,6.54-.65.91-1.46,1.71-2.42,2.39-.96.69-1.95,1.17-2.96,1.45-.26.08-.39.18-.39.32,0,.39.48.73,1.44,1.02s2.05.44,3.29.44c.76,0,1.48-.15,2.16-.45.14-.06.27-.1.37-.1.17,0,.35.14.52.41.17.27.26.54.26.81,0,.55-.35,1.14-1.04,1.75-.7.63-1.62,1.13-2.74,1.49-1.12.37-2.28.55-3.47.55-1.4,0-2.91-.27-4.54-.8-1.63-.53-4.01-1.53-7.14-3-.55-.27-1.17-.5-1.87-.67-.69-.18-1.27-.27-1.72-.27-.15,0-.34.02-.55.05-.12.01-.22.02-.31.02-.21,0-.38-.09-.51-.27-.14-.18-.2-.4-.2-.67,0-.5.16-.91.49-1.25.52-.52,1.16-.78,1.92-.78l.88.02c.24,0,.36-.11.36-.32,0-.16-.22-.5-.67-1.02-1.01-1.16-1.75-2.24-2.22-3.25-.74-1.57-1.1-3.21-1.1-4.94,0-2.27.6-4.31,1.8-6.11,1.17-1.74,2.86-3.1,5.08-4.08,1.82-.79,3.63-1.19,5.44-1.19v.03Zm-1.61,4.71c-.86,0-1.52.29-2.01.87-.48.58-.72,1.38-.72,2.39,0,1.2.19,2.51.58,3.93.38,1.42.91,2.75,1.57,4.01.89,1.69,1.99,2.53,3.31,2.53.86,0,1.56-.3,2.12-.89.56-.6.84-1.35.84-2.27,0-1.21-.22-2.59-.65-4.14s-.99-2.91-1.66-4.08c-.87-1.53-1.99-2.31-3.38-2.35Z"/>
  <path class="cls-1" d="m169.19,92.01v3.96c0,2.39-.18,4.09-.54,5.08-.77,2.1-2.46,3.62-5.07,4.56-1.58.58-3.37.88-5.36.88-3.47,0-6.26-.83-8.35-2.48-1.02-.81-1.72-1.75-2.11-2.83s-.58-2.62-.58-4.64c0-.79.03-2.09.08-3.9.03-1.28.05-2.12.05-2.53,0-.9-.07-1.52-.2-1.87-.14-.35-.43-.67-.88-.97-.71-.47-1.07-.98-1.07-1.56,0-.42.18-.8.54-1.12s.84-.55,1.44-.67c1.19-.24,2.6-.36,4.22-.36,1.79,0,3.27.14,4.45.41,1.16.26,1.74.85,1.74,1.77,0,.45-.17.82-.5,1.09-.08.06-.4.23-.97.5-.35.15-.58.43-.71.83-.12.4-.19,1.06-.19,1.98s-.04,2.98-.13,6.11c-.05,1.86.45,3.28,1.51,4.25.87.8,1.98,1.2,3.34,1.2.87,0,1.65-.16,2.35-.48.7-.32,1.24-.76,1.61-1.31.29-.42.49-.89.6-1.41.11-.52.16-1.23.16-2.13v-3.57c-.05-2.74-.13-4.34-.24-4.81-.1-.47-.45-.84-1.05-1.11-.56-.25-.95-.48-1.15-.68-.21-.21-.31-.46-.31-.76,0-.65.39-1.12,1.16-1.42.77-.3,2.02-.45,3.73-.45s2.89.15,3.65.44c.75.29,1.13.76,1.13,1.4,0,.31-.06.55-.19.7-.13.15-.47.38-1.02.7-.57.32-.9.67-.98,1.05s-.13,1.76-.15,4.16h0Z"/>
  <path class="cls-1" d="m179.6,83.55c1.23,0,2.4.11,3.49.32,1.47.29,2.21.91,2.21,1.87,0,.31-.07.55-.22.71-.15.16-.52.39-1.11.69-.5.25-.83.8-.98,1.64-.16.84-.24,2.49-.24,4.94,0,4.14.1,6.7.31,7.68.08.31.19.55.35.72s.43.35.82.54c.71.32,1.07.8,1.07,1.41,0,.87-.66,1.46-1.98,1.79-1.43.35-3.18.52-5.24.52-3.53,0-5.29-.67-5.29-2.01,0-.49.35-.94,1.04-1.36.53-.32.84-.77.94-1.33.21-1.23.31-3.85.31-7.86,0-2.77-.14-4.55-.42-5.33-.15-.44-.51-.84-1.09-1.2-.44-.29-.74-.54-.89-.73s-.23-.44-.23-.75c0-.47.22-.84.67-1.11.45-.28,1.24-.52,2.38-.74,1.35-.27,2.72-.41,4.11-.41h-.01Z"/>
  <path class="cls-1" d="m195.33,84.68l8.09,7.08c.76.66,1.3.99,1.64.99.56,0,.84-.6.84-1.8,0-1.36-.08-2.29-.24-2.79s-.5-.87-1.02-1.12c-.42-.21-.72-.42-.89-.66-.17-.23-.26-.53-.26-.9,0-.91.62-1.49,1.87-1.75.51-.11,1.4-.16,2.66-.16,1.63,0,2.77.1,3.39.29,1,.3,1.49.88,1.49,1.72,0,.7-.41,1.23-1.22,1.59-.32.14-.55.27-.67.37-.12.11-.22.27-.31.49-.29.71-.44,2.07-.45,4.06v5.29c0,.81,0,1.92.02,3.33,0,1.91-.1,3.28-.34,4.12-.29,1.05-.82,1.57-1.59,1.57-.34,0-.63-.07-.87-.21s-.65-.47-1.21-.97l-9.63-8.62c-.67-.61-1.23-.91-1.67-.91-.66,0-.99.91-.99,2.74,0,1.5.08,2.53.25,3.09.17.55.51.96,1.03,1.22.73.36,1.09.82,1.09,1.4,0,1.5-1.62,2.26-4.85,2.26-1.46,0-2.6-.19-3.4-.58-.81-.38-1.21-.93-1.21-1.63,0-.37.08-.64.23-.83.15-.18.49-.43,1.02-.75.51-.3.82-.84.93-1.61.18-1.4.28-3.4.28-6.02,0-2.79-.16-4.83-.49-6.11-.12-.47-.27-.81-.45-1.04s-.49-.44-.91-.65c-.49-.24-.83-.47-1.01-.7-.19-.23-.28-.5-.28-.83,0-1.04.89-1.69,2.68-1.96.61-.09,1.67-.13,3.18-.13.87,0,1.5.07,1.89.2.39.14.86.44,1.4.92h-.02Z"/>
  <path class="cls-1" d="m226.11,83.44c2.78,0,5.21.8,7.29,2.39,1.41,1.09,2.55,2.51,3.43,4.25.86,1.73,1.28,3.46,1.28,5.2,0,2.55-.84,4.84-2.53,6.85-1.43,1.71-3.3,2.94-5.6,3.69-1.42.45-2.84.68-4.27.68-1.87,0-3.66-.39-5.37-1.17-2.07-.94-3.69-2.36-4.85-4.27-1.14-1.84-1.7-3.87-1.7-6.09,0-2.58.73-4.85,2.19-6.82,1.3-1.75,3.05-3.04,5.24-3.86,1.47-.56,3.11-.84,4.9-.84h0Zm-1.54,4.65c-.91,0-1.63.41-2.16,1.22-.41.61-.62,1.33-.62,2.16,0,1.22.25,2.64.75,4.25s1.13,3.03,1.88,4.28c.34.53.75.95,1.24,1.27.49.31.99.47,1.5.47.82,0,1.49-.31,1.99-.93s.76-1.43.76-2.44c0-1.31-.21-2.72-.63-4.24s-.97-2.81-1.64-3.88c-.41-.66-.89-1.18-1.43-1.56s-1.09-.58-1.64-.6h0Z"/>
  <path class="cls-2" d="m108.98,118.26c1.46,0,2.84.21,4.14.62.58.19.98.28,1.19.28s.69-.13,1.41-.39c.23-.08.47-.12.72-.12.63,0,1.22.37,1.79,1.11.92,1.18,1.37,2.48,1.37,3.89,0,.96-.24,1.74-.73,2.33s-1.13.89-1.92.89c-.65,0-1.29-.23-1.91-.7-.19-.15-.65-.67-1.39-1.58-1.23-1.51-2.64-2.26-4.24-2.26-1.45,0-2.61.53-3.46,1.59s-1.28,2.49-1.28,4.29c0,2.67.68,4.94,2.05,6.82.51.68,1.13,1.23,1.84,1.63.72.41,1.42.61,2.13.61.58,0,1.06-.19,1.43-.58s.56-.88.56-1.48c0-.54-.16-.92-.47-1.14-.12-.09-.24-.14-.34-.16-.11-.02-.43-.03-.96-.03-.48,0-.88-.15-1.2-.46-.32-.31-.48-.7-.48-1.16,0-.93.61-1.59,1.84-1.98,1.35-.42,2.91-.64,4.68-.64,1.89,0,3.48.2,4.76.59,1.22.38,1.83,1.07,1.83,2.06,0,.4-.14.75-.42,1.05s-.64.47-1.09.53c-.39.06-.65.14-.76.26s-.24.41-.36.86c-.48,1.78-1.42,3.26-2.82,4.46-.96.82-2.12,1.45-3.48,1.91s-2.79.69-4.28.69c-2.45,0-4.69-.56-6.74-1.69-2.1-1.15-3.7-2.76-4.79-4.83-.92-1.72-1.37-3.58-1.37-5.58s.55-3.94,1.64-5.77c1.16-1.96,2.79-3.46,4.88-4.53,1.82-.94,3.9-1.41,6.24-1.41v.02Z"/>
  <path class="cls-2" d="m134.3,131.99c-.42,0-.7.13-.81.39-.12.26-.18.85-.18,1.79,0,1.42.09,2.53.27,3.32.06.22.14.4.25.52.11.12.32.27.64.45.67.37,1.01.85,1.01,1.46,0,.74-.47,1.26-1.4,1.57-.93.31-2.51.46-4.74.46-4.13,0-6.2-.78-6.2-2.35,0-.27.06-.48.18-.65.12-.16.4-.39.84-.68.49-.32.82-.71,1-1.15.17-.44.29-1.2.36-2.29.06-.79.08-3.64.08-8.53,0-1.55-.08-2.61-.23-3.17-.16-.56-.49-.97-1.01-1.22-.49-.23-.82-.45-.99-.65s-.25-.45-.25-.76c0-.41.16-.77.48-1.08s.76-.53,1.33-.68c.48-.12,1.14-.18,1.98-.18.37,0,1.29.06,2.77.17.28.02.72.03,1.32.03,1.01,0,2.35-.07,4.02-.2,1.06-.08,1.8-.12,2.23-.12,2.39,0,4.37.58,5.93,1.73,1.41,1.04,2.11,2.48,2.11,4.32,0,1.03-.25,1.96-.74,2.81-.49.84-1.17,1.48-2.03,1.9-.36.18-.54.39-.54.64,0,.32.27.59.82.79,1.17.42,2.03,1.07,2.58,1.93.55.86.94,2.18,1.17,3.96.1.74.25,1.22.44,1.43.19.22.63.43,1.32.63.21.07.39.21.54.43.15.22.22.46.22.73,0,.35-.13.7-.4,1.05s-.61.63-1.04.83c-.94.44-2.22.65-3.86.65-2.18,0-3.74-.58-4.68-1.73-.42-.51-.79-1.16-1.08-1.94-.3-.78-.65-2-1.05-3.65-.26-1.06-.58-1.81-.98-2.25s-.96-.67-1.7-.7h.02Zm-.97-8.56l-.18,3.91v.15c0,.4.06.67.18.8s.35.2.71.2c.98,0,1.7-.25,2.15-.76s.67-1.32.67-2.44c0-2.16-.77-3.24-2.3-3.24-.44,0-.74.1-.92.3-.18.2-.28.56-.3,1.07h0Z"/>
  <path class="cls-2" d="m162.01,118.26c2.87,0,5.38.82,7.53,2.46,1.45,1.13,2.63,2.59,3.54,4.39.88,1.79,1.32,3.58,1.32,5.36,0,2.64-.87,5-2.61,7.07-1.48,1.77-3.4,3.03-5.78,3.81-1.46.47-2.93.7-4.41.7-1.93,0-3.78-.4-5.55-1.21-2.13-.97-3.81-2.44-5.01-4.41-1.17-1.9-1.76-3.99-1.76-6.29,0-2.66.75-5.01,2.26-7.04,1.34-1.81,3.15-3.14,5.41-3.99,1.52-.58,3.21-.87,5.06-.87v.02Zm-1.59,4.81c-.94,0-1.68.42-2.23,1.26-.42.63-.64,1.37-.64,2.23,0,1.26.26,2.72.77,4.38.51,1.66,1.16,3.13,1.94,4.42.35.55.77.98,1.28,1.31.51.32,1.03.49,1.55.49.85,0,1.53-.32,2.05-.96s.78-1.48.78-2.51c0-1.35-.22-2.81-.65-4.37-.44-1.56-1-2.9-1.69-4.01-.42-.68-.92-1.22-1.48-1.61s-1.12-.6-1.69-.62h0Z"/>
  <path class="cls-2" d="m189.55,124.68l-.49-1.17c-.3-.68-.68-1.13-1.12-1.36-.8-.42-1.21-.96-1.21-1.61,0-1.43,2.15-2.15,6.44-2.15,2.15,0,3.78.17,4.89.52.38.12.68.32.91.59.23.27.34.56.34.89,0,.28-.05.49-.16.64s-.4.43-.88.85c-.28.23-.42.48-.42.74,0,.39.21,1.04.64,1.94l.96,2.05c.44.93.75,1.52.93,1.77s.39.38.63.38c.26,0,.48-.15.66-.44.18-.29.42-.86.71-1.71l.8-2.35c.22-.67.34-1.17.34-1.51,0-.45-.23-.74-.7-.89-.94-.3-1.41-.84-1.41-1.61,0-.67.36-1.15,1.09-1.44s1.92-.44,3.59-.44c1.08,0,1.93.12,2.53.37.84.34,1.26.87,1.26,1.61,0,.32-.08.6-.23.84s-.46.55-.91.94c-.3.26-.53.53-.7.82-.16.29-.41.89-.75,1.79l-2.93,7.79c-1.46,3.63-2.35,5.79-2.65,6.49-.3.69-.61,1.31-.94,1.86-.25.4-.52.68-.82.85s-.7.24-1.21.24c-.67,0-1.21-.15-1.62-.44-.41-.29-.75-.77-1.03-1.44l-3.32-7.88c-.18-.44-.31-.71-.4-.82s-.21-.17-.37-.17c-.23,0-.44.14-.6.42-.17.28-.49,1-.96,2.16l-2.28,5.67c-.42,1.03-.83,1.71-1.22,2.04s-.97.49-1.75.49c-.7,0-1.26-.17-1.67-.5-.41-.34-.78-.93-1.11-1.78l-6.17-15.77c-.26-.65-.43-1.03-.53-1.15s-.39-.31-.9-.58c-.57-.29-.85-.78-.85-1.48,0-1.58,1.96-2.36,5.87-2.36,2,0,3.45.14,4.34.42.86.28,1.29.83,1.29,1.66,0,.26-.02.44-.07.56-.04.12-.21.38-.49.78-.13.21-.2.48-.2.79,0,.56.37,1.72,1.12,3.49l.69,1.61c.29.67.48,1.08.58,1.22.09.14.23.21.41.21.44,0,.88-.62,1.34-1.86l.69-1.91c.06-.13.08-.24.08-.32,0-.09-.03-.21-.08-.35h.02Z"/>
  <path class="cls-2" d="m217.9,118.73h8.83c.95-.03,1.82-.16,2.6-.39.34-.09.63-.13.89-.13.91,0,1.79.67,2.64,2.01s1.28,2.72,1.28,4.14c0,.97-.3,1.68-.89,2.13-.45.34-.98.5-1.61.5-.59,0-1.11-.16-1.54-.49s-.87-.87-1.29-1.63c-.37-.69-.66-1.15-.87-1.36-.21-.21-.47-.32-.77-.32-.41,0-.71.17-.89.52s-.27.92-.27,1.71v9.39c0,.96.1,1.66.3,2.1s.58.77,1.14,1.01c.6.26,1.01.5,1.23.73s.33.54.33.95c0,.8-.54,1.4-1.63,1.79s-2.76.59-5.02.59c-2.77,0-4.83-.23-6.17-.69-1.13-.38-1.69-.99-1.69-1.84,0-.46.2-.82.6-1.07.1-.06.5-.19,1.19-.4.42-.12.72-.36.88-.7.16-.35.29-1.01.39-1.99.09-.87.17-2.28.25-4.23s.12-3.64.12-5.07c0-1.01-.08-1.72-.23-2.15-.16-.42-.41-.64-.77-.64-.44,0-.86.31-1.27.94-.75,1.14-1.36,1.89-1.84,2.26-.57.44-1.12.65-1.66.65-.6,0-1.1-.23-1.49-.68s-.59-1.03-.59-1.73.16-1.46.47-2.29.73-1.6,1.26-2.3c.85-1.14,1.69-1.71,2.51-1.71.22,0,.48.03.77.1.6.12,1.1.21,1.48.25s.83.07,1.33.07v-.03Z"/>
</svg>