<?xml version="1.0" encoding="UTF-8"?>
<svg id="Capa_1" data-name="Capa 1" xmlns="http://www.w3.org/2000/svg" viewBox="0 0 237.25 237.23">
  <defs>
    <style>
      .cls-1 {
        fill: #057545;
      }

      .cls-2 {
        fill: #156d62;
      }
    </style>
  </defs>
  <path class="cls-1" d="m49.16,73.22c.63-6.67,1.17-13.16,1.09-14.55,0,0-2.41,4.28-12.07,8.21,0,0-7.48,2.15-7.3,9.73,0,0-5.32-9.51-.99-15.13,0,0,1.52-2.99,8.26-6.44,0,0,2.64-1.24,5.63-6.46,2.59-4.51,6.74-7.96,11.66-9.58.2-.08.41-.13.61-.2,0,0-18.68-1.85-18.05-21.72,0,0,4.82,7.53,20.91,8.16l9.66,1.01c.25,0,.51-.03.71-.18,2.1-1.42,14.5-9.33,28.14-10.16l15.44-2.15s24.08-4.87,29.91-4.54c5.83.3,13.23.38,21.01,7.98,0,0-6.79-1.04-10.16-.48,0,0-7.91.74-12.27,1.72,0,0,7.4,1.77,11.74,3.5,0,0,23.29,12.95,35.06,8.26,0,0-1.77,8.47-15.36,9.15,0,0-9.38.79-25.8-5.32,0,0-27.83-10.16-45.73-9.25,0,0,14.04,2.21,36.4,13.23l-9.81,3.55s33.89,14.22,32.29,54.07c0,0,12.09-28.21-13.36-50.44,0,0,24.71-8.06,43.34,10.72,0,0,12.27,11.76,18.15,19.29,0,0,6.87,7.68,14.88,4.59,0,0-5.88,8.01-21.42,2.94,0,0-2.48-.25-9.91-4.13,0,0-2.03,23.4-32.17,46.87,0,0,19.04-5.96,32.6-26.89,0,0,.15,31.71-33.33,43.32,0,0-10.06,4.41-38.17,10.62,0,0-45.19,10.72-57.18,32.88,0,0-.89-19.39,16.53-38.25,0,0,10.42-11.15,22.56-19.01,0,0,30.64-14.45,23.62-47.88-.41-1.9-1.39-4.94-2.64-7.63-.76-1.62-3.65-8.39-18.02-10.82,0,0,24.36,7.25,14.55,33.36-7.91,21.04-24,22.96-29.96,22.94-1.6,0-3.12.56-4.33,1.57-4.16,3.5-13.16,11.25-13.16,12.37,0,.96-.23,5.91-.41,9.2-.08,1.5,0,2.97.1,4.46.15,1.95-.25,5.25-4.74,5.83-5.22.68-6.34-1.37-6.59-2.18-.05-.2-.15-.41-.25-.61-.33-.68-.99-2.69-1.01-8.19,0-.33-.3-.56-.63-.48-.91.23-2.56,1.04-2.71,4.06-.08,1.39-.25,2.76-.63,4.11-.71,2.59-2.1,6.34-4.49,8.57-.41.38-.99.56-1.55.43-2.59-.56-10.47-2.79-13.33-9.71-.1-.23-.18-.43-.28-.66-.43-.99-2.21-5.55-1.44-13.59.03-.41,0-.81-.2-1.17-.56-1.22-1.88-4.06-1.88-4.06,0,0,.61-1.14,1.6-3.12,8.09-16.17,13.08-33.71,14.78-51.71h.13Z"/>
  <path class="cls-1" d="m79.76,16.85s-16.1.53-23.34-7.58c0,0-2.43,13.21,10.85,13.56l12.52-5.98h-.03Z"/>
  <path class="cls-2" d="m80.59,196.23c-.63-.28-.94-.96-.76-1.62,1.14-4.28,7.53-19.49,41.11-28.95,0,0,55.92-13.84,63.62-18.73.96-.61,1.95-1.17,3.02-1.62,7.35-3.19,30.9-15.31,33.28-40.58,0,0,12.52,39.82-20.1,68.18,0,0,8.11-21.01,6.69-24.51,0,0-4.97,27.96-29.4,39.82,0,0,10.8-16.63,11.99-32.01,0,0-7.33,36.4-39.72,43.72,0,0,10.57-7.65,15.36-31.86,0,0-8.11,30.7-44.99,35.23,0,0-19.52,2.1-40.12-7.05h0l.03-.03Z"/>
  <path class="cls-2" d="m13.14,129.87s20.51,78.96,104.03,85.14c0,0,66.23,7.48,106.03-47.22,0,0-25.93,60.4-100.53,60.23-74.62-.18-106.99-62.56-109.53-98.14h0Z"/>
</svg>